<svg xmlns="http://www.w3.org/2000/svg" class="h-6 w-6 " fill="black" viewBox="0 0 24 24"><path d="M13.9996 2.91667C7.87863 2.91667 2.9165 7.89713 2.9165 14.0407C2.9165 19.2575 6.49502 23.635 11.3224 24.8373V17.4402H9.03704V14.0407H11.3224V12.5759C11.3224 8.78972 
13.0296 7.03479 16.7332 7.03479C17.4354 7.03479 18.647 7.17318 19.1426 7.31112V10.3925C18.8811 10.3649 18.4267 10.3511 17.8623 
10.3511C16.0451 10.3511 15.3429 11.0421 15.3429 12.8384V14.0407H18.9631L18.3411 17.4402H15.3429V25.0833C20.8308 24.4181 25.0832 19.7282 25.0832 14.0407C25.0827 
7.89713 20.1206 2.91667 13.9996 2.91667Z"></path></svg>