<svg xmlns="http://www.w3.org/2000/svg" class="h-6 w-6 " fill="black" viewBox="0 0 24 24"><path d="M22.4487 4.08333H5.54775C4.73815 4.08333 4.0835 4.72249 4.0835 5.51272V22.4834C4.0835 23.2736 4.73815 23.9167 5.54775 
23.9167H22.4487C23.2583 23.9167 23.9168 23.2736 23.9168 22.4873V5.51272C23.9168 4.72249 23.2583 4.08333 22.4487 4.08333ZM9.96764 
20.9843H7.02363V11.517H9.96764V20.9843ZM8.49564 10.227C7.55046 10.227 6.78734 9.46389 6.78734 8.52259C6.78734 7.58128 7.55046 
6.81816 8.49564 6.81816C9.43695 6.81816 10.2001 7.58128 10.2001 8.52259C10.2001 9.46002 9.43695 10.227 8.49564 10.227ZM20.9844 
20.9843H18.0443V16.3823C18.0443 15.2861 18.0249 13.8722 16.5142 13.8722C14.9841 13.8722 14.7517 15.0691 14.7517 
16.3048V20.9843H11.8154V11.517H14.6354V12.8108H14.6742C15.0654 12.067 16.0261 11.2807 17.4555 11.2807C20.4344 11.2807 
20.9844 13.2408 20.9844 15.7896V20.9843Z"></path></svg>